# xmcd CD database generated by RipIT
#
# Track frame offsets:
# 183
# 18440
# 43868
#
# Disc length: 786 seconds
#
# Revision: 0
# Processed by: cddbd v1.5.2PL0 Copyright (c) Steve Scherf et al.
# Submitted via: RipIT 3.6.0 www.suwald.com/ripit/ripit.html on 2009-04-13 at 11:42
#
DISCID=1e031003
DTITLE=Goya - Licht (Single)
DYEAR=1993
DGENRE=Slow Rock
TTITLE0=Licht
TTITLE1=Labyrinth
TTITLE2=Eis o.k.
EXTD=
EXTT0=
EXTT1=
EXTT2=
PLAYORDER=
